<?xml version="1.0" encoding="utf-8"?>
<!-- Generator: Adobe Illustrator 15.0.2, SVG Export Plug-In . SVG Version: 6.00 Build 0)  -->
<!DOCTYPE svg PUBLIC "-//W3C//DTD SVG 1.1//EN" "http://www.w3.org/Graphics/SVG/1.1/DTD/svg11.dtd">
<svg version="1.1" id="Layer_2" xmlns="http://www.w3.org/2000/svg" xmlns:xlink="http://www.w3.org/1999/xlink" x="0px" y="0px"
	 width="32px" height="64px" viewBox="0 0 32 64" enable-background="new 0 0 32 64" xml:space="preserve">
<g>
	<g>
		<g id="Icon-Trash" transform="translate(232.000000, 228.000000)">
			<g id="Fill-6_1_">
				<path fill="#838383" d="M-218.362-205.147c-0.47,0-0.865-0.365-0.897-0.842l-0.833-12.526c-0.033-0.496,0.342-0.925,0.838-0.958
					c0.487-0.047,0.924,0.342,0.958,0.838l0.833,12.527c0.033,0.496-0.342,0.925-0.838,0.958
					C-218.322-205.148-218.342-205.147-218.362-205.147z"/>
			</g>
			<g id="Fill-7_1_">
				<path fill="#838383" d="M-216.059-205.147c-0.497,0-0.9-0.403-0.9-0.9v-12.527c0-0.497,0.403-0.9,0.9-0.9s0.9,0.403,0.9,0.9
					v12.527C-215.158-205.55-215.562-205.147-216.059-205.147z"/>
			</g>
			<g id="Fill-8_1_">
				<path fill="#838383" d="M-213.66-205.147c-0.021,0-0.041-0.001-0.062-0.002c-0.496-0.033-0.871-0.462-0.839-0.958l0.832-12.527
					c0.033-0.496,0.473-0.865,0.958-0.838c0.495,0.033,0.87,0.461,0.839,0.958l-0.832,12.527
					C-212.796-205.512-213.191-205.147-213.66-205.147z"/>
			</g>
			<g id="Fill-9_1_">
				<path fill="#838383" d="M-205.834-222.371h-20.354c-0.497,0-0.9-0.403-0.9-0.9s0.403-0.9,0.9-0.9h20.354
					c0.497,0,0.9,0.403,0.9,0.9S-205.337-222.371-205.834-222.371z"/>
			</g>
			<g id="Fill-10_2_">
				<path fill="#838383" d="M-212.148-222.501c-0.497,0-0.9-0.403-0.9-0.9v-0.652c0-0.757-0.64-1.397-1.396-1.397h-3.129
					c-0.757,0-1.397,0.64-1.397,1.397v0.652c0,0.497-0.403,0.9-0.9,0.9s-0.9-0.403-0.9-0.9v-0.652c0-1.763,1.434-3.197,3.197-3.197
					h3.129c1.765,0,3.197,1.434,3.197,3.197v0.652C-211.248-222.904-211.652-222.501-212.148-222.501z"/>
			</g>
			<g id="Fill-10_1_">
				
					<path fill="none" stroke="#838383" stroke-width="1.8" stroke-linecap="round" stroke-linejoin="round" stroke-miterlimit="10" d="
					M-212.15-222.488"/>
			</g>
			<g id="Fill-11_4_">
				<path fill="#838383" d="M-211.314-200.45c-0.497,0-0.9-0.403-0.9-0.9s0.403-0.9,0.9-0.9c0.807,0,1.49-0.645,1.556-1.469
					l1.461-18.787c0.039-0.496,0.481-0.854,0.968-0.828c0.495,0.039,0.865,0.472,0.827,0.967l-1.461,18.789
					C-208.104-201.823-209.576-200.45-211.314-200.45z"/>
			</g>
			<g id="Fill-11_1_">
				<path fill="#838383" d="M-211.314-200.45h-9.396c-1.704,0-3.207-1.401-3.35-3.123l-1.461-18.793
					c-0.039-0.496,0.332-0.929,0.828-0.967c0.497-0.025,0.929,0.332,0.967,0.828l1.461,18.79c0.065,0.792,0.778,1.467,1.555,1.467
					h9.396c0.496,0,0.9,0.402,0.9,0.899S-210.818-200.45-211.314-200.45z"/>
			</g>
		</g>
	</g>
	<g>
		<g id="Icon-Trash_1_" transform="translate(232.000000, 228.000000)">
			<g id="Fill-6_2_">
				<path fill="#FFFFFF" d="M-218.34-169.447c-0.471,0-0.865-0.365-0.897-0.842l-0.833-12.527c-0.033-0.496,0.342-0.924,0.838-0.957
					c0.487-0.047,0.924,0.342,0.958,0.838l0.833,12.527c0.033,0.496-0.342,0.924-0.838,0.957
					C-218.301-169.449-218.32-169.447-218.34-169.447z"/>
			</g>
			<g id="Fill-7_2_">
				<path fill="#FFFFFF" d="M-216.037-169.447c-0.497,0-0.9-0.404-0.9-0.9v-12.526c0-0.496,0.403-0.899,0.9-0.899
					s0.9,0.403,0.9,0.899v12.526C-215.137-169.852-215.54-169.447-216.037-169.447z"/>
			</g>
			<g id="Fill-8_2_">
				<path fill="#FFFFFF" d="M-213.639-169.447c-0.021,0-0.041-0.002-0.063-0.002c-0.496-0.033-0.871-0.463-0.838-0.959l0.832-12.527
					c0.032-0.494,0.473-0.862,0.957-0.838c0.495,0.033,0.87,0.461,0.84,0.959l-0.832,12.527
					C-212.775-169.813-213.17-169.447-213.639-169.447z"/>
			</g>
			<g id="Fill-9_2_">
				<path fill="#FFFFFF" d="M-205.813-186.672h-20.354c-0.497,0-0.9-0.402-0.9-0.9c0-0.496,0.403-0.897,0.9-0.897h20.354
					c0.496,0,0.9,0.401,0.9,0.897C-204.912-187.074-205.316-186.672-205.813-186.672z"/>
			</g>
			<g id="Fill-10_4_">
				<path fill="#FFFFFF" d="M-212.127-186.801c-0.496,0-0.9-0.404-0.9-0.9v-0.652c0-0.758-0.639-1.396-1.396-1.396h-3.13
					c-0.756,0-1.396,0.64-1.396,1.396v0.652c0,0.496-0.402,0.9-0.9,0.9c-0.496,0-0.899-0.404-0.899-0.9v-0.652
					c0-1.764,1.434-3.196,3.196-3.196h3.13c1.764,0,3.197,1.434,3.197,3.196v0.652
					C-211.227-187.205-211.631-186.801-212.127-186.801z"/>
			</g>
			<g id="Fill-10_3_">
				
					<path fill="none" stroke="#FFFFFF" stroke-width="1.8" stroke-linecap="round" stroke-linejoin="round" stroke-miterlimit="10" d="
					M-212.129-186.789"/>
			</g>
			<g id="Fill-11_3_">
				<path fill="#FFFFFF" d="M-211.293-164.75c-0.496,0-0.9-0.404-0.9-0.9c0-0.498,0.404-0.899,0.9-0.899
					c0.807,0,1.49-0.646,1.557-1.47l1.461-18.787c0.039-0.495,0.48-0.854,0.968-0.827c0.495,0.039,0.864,0.473,0.827,0.967
					l-1.461,18.789C-208.082-166.123-209.555-164.75-211.293-164.75z"/>
			</g>
			<g id="Fill-11_2_">
				<path fill="#FFFFFF" d="M-211.293-164.75h-9.396c-1.703,0-3.207-1.402-3.35-3.123l-1.461-18.793
					c-0.039-0.496,0.332-0.93,0.828-0.967c0.496-0.025,0.929,0.332,0.967,0.828l1.461,18.789c0.064,0.791,0.777,1.467,1.555,1.467
					h9.396c0.496,0,0.9,0.402,0.9,0.898C-210.393-165.152-210.797-164.75-211.293-164.75z"/>
			</g>
		</g>
	</g>
</g>
</svg>
