<?xml version="1.0" encoding="utf-8"?>
<!-- Generator: Adobe Illustrator 15.0.0, SVG Export Plug-In . SVG Version: 6.00 Build 0)  -->
<!DOCTYPE svg PUBLIC "-//W3C//DTD SVG 1.1//EN" "http://www.w3.org/Graphics/SVG/1.1/DTD/svg11.dtd">
<svg version="1.1" id="Layer_2" xmlns="http://www.w3.org/2000/svg" xmlns:xlink="http://www.w3.org/1999/xlink" x="0px" y="0px"
	 width="32px" height="160px" viewBox="0 0 32 160" enable-background="new 0 0 32 160" xml:space="preserve">
<g>
	<g id="note-text">
		<path fill="#B5B5B5" d="M19.214,31H6.104c-1.265,0-2.292-1.025-2.292-2.282V8.167c0-0.069,0.007-0.135,0.021-0.2
			c-0.014-0.065-0.02-0.132-0.02-0.202V3.276c0-1.257,1.021-2.279,2.278-2.279h19.818c1.257,0,2.278,1.027,2.278,2.291v4.478
			c0,0.069-0.006,0.136-0.021,0.2c0.016,0.064,0.021,0.132,0.021,0.2v12.516c0,0.413-0.265,0.763-0.633,0.89l-7.422,8.682
			C20.043,30.68,19.665,31,19.214,31z M5.698,9.11v19.608c0,0.223,0.174,0.393,0.405,0.393h12.088v-6.813
			c0-1.472,1.188-2.668,2.646-2.668H26.3V9.11H5.698z M20.84,21.517c-0.42,0-0.761,0.35-0.761,0.781v5.119l5.043-5.9H20.84z
			 M5.698,7.223h20.604V3.289c0-0.222-0.177-0.404-0.393-0.404H6.091c-0.224,0-0.393,0.168-0.393,0.393V7.223z M12.787,25.642H7.433
			c-0.521,0-0.943-0.422-0.943-0.943c0-0.521,0.423-0.943,0.943-0.943h5.354c0.521,0,0.943,0.422,0.943,0.943
			C13.73,25.22,13.309,25.642,12.787,25.642z M15.331,21.625H7.433c-0.521,0-0.943-0.422-0.943-0.943s0.423-0.943,0.943-0.943h7.898
			c0.521,0,0.943,0.422,0.943,0.943S15.853,21.625,15.331,21.625z M19.214,17.611H7.433c-0.521,0-0.943-0.421-0.943-0.943
			c0-0.521,0.423-0.943,0.943-0.943h11.781c0.521,0,0.943,0.423,0.943,0.943C20.157,17.189,19.734,17.611,19.214,17.611z
			 M21.891,13.594H7.433c-0.521,0-0.943-0.423-0.943-0.943c0-0.521,0.423-0.943,0.943-0.943h14.458c0.521,0,0.942,0.422,0.942,0.943
			C22.834,13.171,22.412,13.594,21.891,13.594z"/>
	</g>
	<g id="note-text_2_">
		<path fill="#288548" d="M19.214,157.002H6.104c-1.265,0-2.292-1.025-2.292-2.281v-20.553c0-0.068,0.007-0.135,0.021-0.199
			c-0.013-0.063-0.021-0.131-0.021-0.201v-4.487c0-1.259,1.021-2.273,2.278-2.273h19.818c1.257,0,2.277,1.021,2.277,2.285v4.478
			c0,0.069-0.006,0.138-0.021,0.2c0.015,0.063,0.021,0.132,0.021,0.199v12.517c0,0.414-0.264,0.764-0.633,0.891l-7.421,8.684
			C20.043,156.682,19.665,157.002,19.214,157.002z M5.698,135.111v19.608c0,0.224,0.174,0.394,0.405,0.394h12.088V148.3
			c0-1.473,1.188-2.668,2.646-2.668H26.3v-10.521H5.698z M20.84,147.52c-0.42,0-0.761,0.351-0.761,0.781v5.119l5.043-5.9H20.84z
			 M5.698,133.225h20.604v-3.934c0-0.223-0.177-0.404-0.393-0.404H6.091c-0.224,0-0.393,0.168-0.393,0.395V133.225z M12.787,151.645
			H7.433c-0.521,0-0.943-0.422-0.943-0.942s0.423-0.941,0.943-0.941h5.354c0.521,0,0.943,0.423,0.943,0.941
			C13.729,151.223,13.309,151.645,12.787,151.645z M15.331,147.627H7.433c-0.521,0-0.943-0.422-0.943-0.943
			c0-0.52,0.423-0.942,0.943-0.942h7.898c0.521,0,0.943,0.424,0.943,0.942C16.274,147.205,15.853,147.627,15.331,147.627z
			 M19.214,143.613H7.433c-0.521,0-0.943-0.422-0.943-0.943s0.423-0.941,0.943-0.941h11.781c0.521,0,0.943,0.422,0.943,0.941
			C20.157,143.191,19.734,143.613,19.214,143.613z M21.891,139.596H7.433c-0.521,0-0.943-0.422-0.943-0.941
			c0-0.521,0.423-0.942,0.943-0.942h14.458c0.521,0,0.942,0.424,0.942,0.942C22.834,139.174,22.412,139.596,21.891,139.596z"/>
	</g>
</g>
</svg>
