<?xml version="1.0" encoding="utf-8"?>
<!-- Generator: Adobe Illustrator 15.0.2, SVG Export Plug-In . SVG Version: 6.00 Build 0)  -->
<!DOCTYPE svg PUBLIC "-//W3C//DTD SVG 1.1//EN" "http://www.w3.org/Graphics/SVG/1.1/DTD/svg11.dtd">
<svg version="1.1" id="Layer_2" xmlns="http://www.w3.org/2000/svg" xmlns:xlink="http://www.w3.org/1999/xlink" x="0px" y="0px"
	 width="32px" height="64px" viewBox="0 0 32 64" enable-background="new 0 0 32 64" xml:space="preserve">
<g>
	<g>
		<g>
			<g>
				<g>
					<path fill="#838383" d="M22.917,28.497H5.868c-1.224,0-2.22-0.996-2.22-2.221V8.201c0-0.409,0.16-0.79,0.45-1.073l4.989-4.989
						c0.28-0.284,0.659-0.442,1.063-0.442h12.767c1.226,0,2.219,0.996,2.219,2.22v0.655c0,0.497-0.401,0.9-0.898,0.9
						s-0.898-0.403-0.898-0.9V3.917c0-0.231-0.188-0.42-0.418-0.42H11.602c0.035,0.096,0.053,0.199,0.053,0.306v3.68
						c0,1.224-0.995,2.22-2.218,2.22h-3.68c-0.108,0-0.212-0.019-0.308-0.054v16.628c0,0.231,0.188,0.42,0.42,0.42h17.049
						c0.23,0,0.418-0.188,0.418-0.42v-9.212c0-0.497,0.402-0.899,0.899-0.899s0.899,0.402,0.899,0.899v9.212
						C25.134,27.501,24.14,28.497,22.917,28.497z M5.869,7.903h3.567c0.23,0,0.418-0.188,0.418-0.42V3.917L5.869,7.903z"/>
				</g>
			</g>
		</g>
		<g>
			<g>
				<g>
					<path fill="#838383" d="M10.737,24.21h-1.47c-0.497,0-0.9-0.403-0.9-0.9c0-0.497,0.403-0.9,0.9-0.9h1.47
						c0.497,0,0.9,0.403,0.9,0.9C11.637,23.807,11.234,24.21,10.737,24.21z M13.394,22.532c-0.235,0-0.465-0.093-0.636-0.264
						c-0.229-0.229-0.318-0.564-0.231-0.878l0.493-1.774c0.061-0.218,0.196-0.395,0.372-0.51c-0.013-0.061-0.021-0.121-0.022-0.184
						c-0.004-0.244,0.091-0.479,0.264-0.652l9.65-9.65c0.11-0.11,0.241-0.185,0.38-0.227c0.041-0.138,0.116-0.268,0.225-0.377
						l0.76-0.76c0.667-0.661,1.809-0.655,2.458,0.001l0.708,0.706c0.674,0.679,0.674,1.778,0.003,2.454L27.05,11.18
						c-0.107,0.109-0.237,0.184-0.377,0.226c-0.043,0.143-0.121,0.274-0.229,0.381l-9.648,9.526
						c-0.226,0.223-0.539,0.305-0.826,0.239c-0.111,0.215-0.308,0.385-0.559,0.454l-1.774,0.492
						C13.554,22.522,13.474,22.532,13.394,22.532z M15.563,18.885l0.579,0.54l8.39-8.282l-0.613-0.613L15.563,18.885z M25.19,9.255
						l0.619,0.619l0.729-0.728l-0.711-0.617L25.19,9.255z M11.704,18.163H9.268c-0.497,0-0.9-0.403-0.9-0.9s0.403-0.9,0.9-0.9h2.436
						c0.497,0,0.9,0.403,0.9,0.9S12.2,18.163,11.704,18.163z M15.336,14.532H9.268c-0.497,0-0.9-0.403-0.9-0.9s0.403-0.9,0.9-0.9
						h6.069c0.497,0,0.9,0.403,0.9,0.9S15.833,14.532,15.336,14.532z"/>
				</g>
			</g>
		</g>
	</g>
	<g>
		<g>
			<g>
				<g>
					<path fill="#FFFFFF" d="M22.949,62.303H5.9c-1.224,0-2.22-0.996-2.22-2.222V42.006c0-0.408,0.16-0.789,0.45-1.072l4.988-4.987
						c0.28-0.285,0.66-0.442,1.063-0.442h12.767c1.225,0,2.219,0.995,2.219,2.221v0.654c0,0.498-0.401,0.899-0.898,0.899
						s-0.899-0.401-0.899-0.899v-0.654c0-0.23-0.188-0.42-0.418-0.42H11.633c0.034,0.096,0.053,0.199,0.053,0.307v3.68
						c0,1.223-0.995,2.219-2.218,2.219h-3.68c-0.108,0-0.213-0.018-0.309-0.053v16.627c0,0.232,0.188,0.42,0.42,0.42h17.049
						c0.23,0,0.418-0.188,0.418-0.42v-9.211c0-0.498,0.402-0.9,0.899-0.9s0.899,0.402,0.899,0.9v9.211
						C25.167,61.307,24.171,62.303,22.949,62.303z M5.901,41.709h3.567c0.23,0,0.418-0.188,0.418-0.42v-3.566L5.901,41.709z"/>
				</g>
			</g>
		</g>
		<g>
			<g>
				<g>
					<path fill="#FFFFFF" d="M10.77,58.016h-1.47c-0.497,0-0.9-0.402-0.9-0.9c0-0.496,0.403-0.9,0.9-0.9h1.47
						c0.497,0,0.9,0.404,0.9,0.9C11.67,57.613,11.267,58.016,10.77,58.016z M13.425,56.338c-0.235,0-0.465-0.092-0.637-0.264
						c-0.229-0.229-0.317-0.564-0.23-0.877l0.493-1.775c0.062-0.217,0.196-0.395,0.372-0.51c-0.014-0.061-0.021-0.121-0.022-0.184
						c-0.004-0.244,0.091-0.479,0.265-0.652l9.649-9.65c0.109-0.108,0.241-0.184,0.38-0.227c0.041-0.137,0.116-0.268,0.226-0.377
						l0.758-0.76c0.668-0.66,1.809-0.654,2.459,0.002l0.707,0.705c0.675,0.68,0.675,1.777,0.004,2.453l-0.766,0.764
						c-0.108,0.109-0.238,0.184-0.377,0.227c-0.043,0.144-0.121,0.273-0.229,0.381l-9.649,9.525
						c-0.225,0.223-0.537,0.305-0.824,0.24c-0.111,0.215-0.309,0.385-0.56,0.453l-1.774,0.492
						C13.586,56.328,13.505,56.338,13.425,56.338z M15.595,52.691l0.579,0.539l8.39-8.281l-0.613-0.613L15.595,52.691z
						 M25.223,43.061l0.618,0.619l0.729-0.729l-0.711-0.617L25.223,43.061z M11.736,51.969H9.299c-0.497,0-0.9-0.402-0.9-0.9
						c0-0.496,0.403-0.9,0.9-0.9h2.437c0.496,0,0.899,0.404,0.899,0.9C12.635,51.566,12.232,51.969,11.736,51.969z M15.369,48.338
						h-6.07c-0.497,0-0.9-0.401-0.9-0.899c0-0.496,0.403-0.9,0.9-0.9h6.069c0.496,0,0.899,0.404,0.899,0.9
						C16.269,47.936,15.865,48.338,15.369,48.338z"/>
				</g>
			</g>
		</g>
	</g>
</g>
</svg>
