<?xml version="1.0" encoding="utf-8"?>
<!-- Generator: Adobe Illustrator 15.0.0, SVG Export Plug-In . SVG Version: 6.00 Build 0)  -->
<!DOCTYPE svg PUBLIC "-//W3C//DTD SVG 1.1//EN" "http://www.w3.org/Graphics/SVG/1.1/DTD/svg11.dtd">
<svg version="1.1" id="Layer_2" xmlns="http://www.w3.org/2000/svg" xmlns:xlink="http://www.w3.org/1999/xlink" x="0px" y="0px"
	 width="32px" height="32px" viewBox="100.898 51.682 32 32" enable-background="new 100.898 51.682 32 32" xml:space="preserve">
<g>
	<g>
		<path fill="#FFFFFF" d="M116.898,83.682c-0.44,0-0.876-0.021-1.305-0.056l-0.186-0.019c-0.397-0.033-0.829-0.092-1.25-0.165
			c-0.002-0.001-0.105-0.019-0.108-0.02c-1.339-0.244-2.64-0.656-3.867-1.225c-0.456-0.212-0.821-0.405-1.175-0.605
			c0,0-0.093-0.055-0.094-0.055l-0.145-0.085c-0.3-0.177-0.619-0.378-0.933-0.592l-0.293-0.211
			c-0.303-0.224-0.584-0.432-0.849-0.654l-0.069-0.047l-0.519-0.438c-0.065-0.056-0.123-0.118-0.172-0.188
			c-3.204-3.019-5.037-7.25-5.037-11.643c0-8.822,7.178-16,16-16s16,7.177,16,16c0,4.423-1.853,8.672-5.091,11.69
			c-0.046,0.067-0.102,0.128-0.165,0.181l-0.498,0.418c-0.017,0.015-0.102,0.079-0.12,0.092c-0.291,0.236-0.547,0.427-0.81,0.611
			c-0.088,0.066-0.203,0.152-0.32,0.229c-0.275,0.194-0.586,0.383-0.899,0.571l-0.176,0.102c-0.43,0.242-0.778,0.424-1.14,0.594
			l-0.165,0.073c-1.185,0.545-2.469,0.948-3.784,1.183l-0.111,0.022c-0.423,0.069-0.84,0.125-1.267,0.165l-0.17,0.013
			C117.767,83.661,117.334,83.682,116.898,83.682z M109.903,79.8l0.117,0.068c0.282,0.159,0.603,0.329,0.929,0.482
			c1.147,0.53,2.287,0.891,3.46,1.105c0.457,0.079,0.832,0.13,1.207,0.163l0.038,1.008l0.082-0.996
			c0.788,0.064,1.542,0.063,2.289,0.002l0.157-0.013c0.366-0.033,0.736-0.083,1.105-0.144l0.098-0.021
			c1.142-0.204,2.263-0.556,3.325-1.044c0.001-0.001,0.114-0.051,0.115-0.051c0.318-0.15,0.624-0.309,0.925-0.479l0.22-0.126
			c0.177-0.106,0.355-0.214,0.531-0.327l-4.399-2.067c-1.149-0.577-1.849-1.712-1.849-2.972v-2.018c0-0.244,0.089-0.479,0.251-0.662
			l0.135-0.152c0.098-0.112,0.214-0.268,0.34-0.441c0.519-0.734,0.932-1.567,1.221-2.467l0.089-0.272
			c0.102-0.312,0.35-0.554,0.663-0.648l0.205-0.062v-1.857l-0.152-0.084c-0.213-0.19-0.335-0.462-0.334-0.748l0.006-3.11
			c0.008-0.131,0.083-1.042-0.521-1.723c-0.736-0.834-2.177-1.009-3.257-1.009c-1.086,0-2.533,0.176-3.264,1.012
			c-0.592,0.675-0.529,1.524-0.52,1.619c0.003,0.032,0.005,0.07,0.005,0.102l0.006,3.108c0,0.283-0.12,0.553-0.33,0.742
			l-0.182,0.164l0.025,1.859l0.153,0.04c0.219,0.143,0.373,0.364,0.431,0.619l0.048,0.213c0.389,1.687,1.422,2.963,1.432,2.976
			l0.119,0.14c0.153,0.181,0.237,0.41,0.237,0.647v1.969c0,1.205-0.658,2.317-1.718,2.902l-4.129,2.125
			c0.193,0.126,0.394,0.25,0.596,0.369l-0.399,0.925L109.903,79.8z M120.254,72.745v1.646c0,0.499,0.277,0.948,0.724,1.173
			l5.307,2.494c0.009-0.009,0.019-0.018,0.027-0.026c2.915-2.648,4.587-6.421,4.587-10.35c0-7.719-6.28-14-14-14s-14,6.28-14,14
			c0,3.904,1.656,7.664,4.545,10.313c0.01,0.009,0.02,0.019,0.028,0.027l4.93-2.537c0.396-0.219,0.658-0.66,0.658-1.138v-1.612
			c-0.321-0.424-1.256-1.761-1.697-3.505c-0.455-0.36-0.723-0.904-0.723-1.486v-1.934c0-0.469,0.171-0.909,0.486-1.261v-2.607
			c-0.03-0.281-0.117-1.833,1.004-3.111c0.981-1.124,2.587-1.695,4.769-1.695c2.169,0,3.769,0.566,4.755,1.683
			c1.126,1.268,1.047,2.835,1.02,3.137l-0.002,2.595c0.317,0.357,0.486,0.795,0.486,1.259v1.934c0,0.742-0.451,1.423-1.123,1.73
			c-0.347,1.01-0.826,1.954-1.427,2.805C120.479,72.456,120.362,72.611,120.254,72.745z"/>
	</g>
</g>
</svg>
